<?xml version="1.0" encoding="UTF-8" standalone="no"?>
<!DOCTYPE svg PUBLIC "-//W3C//DTD SVG 1.1//EN" "http://www.w3.org/Graphics/SVG/1.1/DTD/svg11.dtd">
<svg width="100%" height="100%" viewBox="0 0 30 30" version="1.1" xmlns="http://www.w3.org/2000/svg" xmlns:xlink="http://www.w3.org/1999/xlink" xml:space="preserve" xmlns:serif="http://www.serif.com/" style="fill-rule:evenodd;clip-rule:evenodd;stroke-linejoin:round;stroke-miterlimit:2;">
    <g transform="matrix(0.182882,0,0,0.182882,-5.117045,-5.182882)">
        <path d="M65.08,28.34C44.53,28.34 27.98,44.89 27.98,65.45L27.98,154.56C27.98,175.11 44.53,191.67 65.08,191.67L154.92,191.67C175.47,191.67 192.02,175.12 192.02,154.56L192.02,65.45C192.02,44.9 175.47,28.34 154.92,28.34L65.08,28.34ZM91.22,110C91.22,99.73 99.61,91.22 110,91.22C120.39,91.22 128.78,99.61 128.78,110C128.78,120.39 120.39,128.78 110,128.78C99.61,128.78 91.22,120.39 91.22,110ZM81.07,110C80.95,94.09 93.97,81.07 110,81.07C125.91,80.95 138.93,93.97 138.93,110C139.05,125.91 126.03,138.93 110,138.93C94.09,139.05 81.07,126.03 81.07,110ZM133.29,79.82C133.29,76.06 136.3,73.06 140.06,73.06C143.82,73.06 146.82,76.06 146.82,79.82C146.82,83.58 143.81,86.58 140.06,86.58C136.31,86.58 133.29,83.57 133.29,79.82ZM87.33,155.96C81.82,155.71 78.82,154.83 76.81,154.09C74.18,153.09 72.3,151.83 70.3,149.83C68.3,147.95 67.04,146.07 66.04,143.31C65.29,141.43 64.29,138.43 64.04,132.92C63.79,126.91 63.79,125.16 63.67,110.01C63.67,95.11 63.79,93.23 64.04,87.34C64.29,81.83 65.17,78.83 65.92,76.82C66.92,74.19 68.18,72.31 70.18,70.31C72.06,68.31 73.94,67.06 76.69,66.05C78.57,65.3 81.57,64.3 87.08,64.05C93.09,63.8 94.85,63.8 110,63.67C124.9,63.67 126.78,63.79 132.67,64.05C138.18,64.3 141.18,65.18 143.19,65.92C145.82,66.92 147.7,68.18 149.7,70.18C151.7,72.06 152.96,73.94 153.96,76.7C154.71,78.58 155.72,81.58 155.96,87.09C156.21,93.1 156.21,94.85 156.33,110C156.33,124.9 156.21,126.78 155.96,132.67C155.71,138.18 154.83,141.18 154.08,143.19C153.08,145.82 151.83,147.7 149.82,149.7C147.94,151.7 146.06,152.95 143.31,153.96C141.43,154.71 138.43,155.71 132.92,155.96C126.91,156.21 125.16,156.21 110.01,156.34C95.11,156.34 93.23,156.22 87.34,155.96L87.33,155.96ZM86.58,53.9C92.71,53.65 94.59,53.53 110,53.53C125.41,53.53 127.15,53.53 133.17,53.78C139.18,54.03 143.31,55.03 146.82,56.41C150.57,57.91 153.71,59.79 156.96,62.92C160.09,66.05 161.97,69.18 163.48,72.94C164.85,76.57 165.86,80.58 166.11,86.71C166.36,92.72 166.49,94.6 166.49,110C166.49,125.4 166.49,127.16 166.24,133.17C165.99,139.18 164.99,143.31 163.61,146.82C162.11,150.57 160.23,153.7 157.1,156.96C153.97,160.09 150.84,161.97 147.08,163.47C143.45,164.85 139.44,165.85 133.43,166.1C127.29,166.35 125.42,166.47 110.01,166.47C94.6,166.47 92.85,166.47 86.84,166.22C80.83,165.97 76.7,164.97 73.19,163.59C69.44,162.09 66.31,160.21 63.05,157.08C59.92,153.95 58.04,150.82 56.54,147.06C55.16,143.43 54.16,139.42 53.91,133.41C53.66,127.27 53.54,125.4 53.54,109.99C53.54,94.58 53.54,92.83 53.79,86.82C54.04,80.81 55.04,76.68 56.42,73.17C57.92,69.42 59.8,66.28 62.93,63.03C66.06,59.9 69.19,58.02 72.95,56.52C76.58,55.14 80.59,54.14 86.6,53.89L86.58,53.9Z" style="fill:white;"/>
    </g>
</svg>
