<?xml version="1.0" encoding="UTF-8" standalone="no"?>
<!DOCTYPE svg PUBLIC "-//W3C//DTD SVG 1.1//EN" "http://www.w3.org/Graphics/SVG/1.1/DTD/svg11.dtd">
<svg width="100%" height="100%" viewBox="0 0 30 30" version="1.1" xmlns="http://www.w3.org/2000/svg" xmlns:xlink="http://www.w3.org/1999/xlink" xml:space="preserve" xmlns:serif="http://www.serif.com/" style="fill-rule:evenodd;clip-rule:evenodd;stroke-linejoin:round;stroke-miterlimit:2;">
    <g transform="matrix(0.184684,0,0,0.184684,-5.315193,-5.315193)">
        <path d="M157.22,28.78L62.78,28.78C44.08,28.78 28.78,44.08 28.78,62.78L28.78,157.22C28.78,175.92 44.08,191.22 62.78,191.22L157.22,191.22C175.92,191.22 191.22,175.92 191.22,157.22L191.22,62.78C191.22,44.08 175.92,28.78 157.22,28.78ZM86.16,155.3L66.57,155.3L66.57,95.71L86.16,95.71L86.16,155.3ZM76.36,88.44C70.37,88.44 65.52,83.59 65.52,77.6C65.52,71.61 70.37,66.75 76.36,66.75C82.35,66.75 87.21,71.61 87.21,77.6C87.21,83.59 82.35,88.44 76.36,88.44ZM154.49,155.3L134.91,155.3L134.91,123.82C134.91,112.87 129.85,110.92 125.85,110.92C121.85,110.92 116.69,112.88 116.16,120.38L116.16,155.3L96.58,155.3L96.58,95.71L116.16,95.71L116.16,102.49C119.87,97.9 125.16,94.3 132.69,94.3C153.61,94.3 154.49,113.33 154.49,113.33L154.49,155.3Z" style="fill:white;fill-rule:nonzero;"/>
    </g>
</svg>
