<?xml version="1.0" encoding="UTF-8" standalone="no"?>
<!DOCTYPE svg PUBLIC "-//W3C//DTD SVG 1.1//EN" "http://www.w3.org/Graphics/SVG/1.1/DTD/svg11.dtd">
<svg width="100%" height="100%" viewBox="0 0 30 30" version="1.1" xmlns="http://www.w3.org/2000/svg" xmlns:xlink="http://www.w3.org/1999/xlink" xml:space="preserve" xmlns:serif="http://www.serif.com/" style="fill-rule:evenodd;clip-rule:evenodd;stroke-linejoin:round;stroke-miterlimit:2;">
    <g transform="matrix(0.182882,0,0,0.182882,-5.901609,-5.182882)">
        <path d="M69.37,28.34C48.82,28.34 32.27,44.89 32.27,65.45L32.27,154.56C32.27,175.11 48.82,191.67 69.37,191.67L159.21,191.67C179.76,191.67 196.31,175.12 196.31,154.56L196.31,65.45C196.31,44.9 179.76,28.34 159.21,28.34L69.37,28.34ZM145.11,79.85C148.91,82.31 153.37,83.76 158.17,83.76L158.17,101.07C149.24,101.07 140.86,98.17 134.05,93.37L134.05,128.43C134.05,146.07 119.75,160.36 102.22,160.36C95.52,160.36 89.16,158.24 84.02,154.55C75.76,148.86 70.4,139.25 70.4,128.42C70.4,110.89 84.7,96.6 102.22,96.6C103.78,96.6 105.12,96.82 106.57,96.93L106.57,114.57C105.23,114.12 103.78,113.9 102.22,113.9C94.29,113.9 87.71,120.38 87.71,128.42C87.71,134 90.84,138.92 95.52,141.37C97.53,142.38 99.88,143.04 102.22,143.04C110.15,143.04 116.4,136.79 116.74,128.97L116.74,59.64L134.05,59.64C134.05,61.09 134.27,62.66 134.49,64C135.72,70.59 139.63,76.28 145.1,79.86L145.11,79.85Z" style="fill:white;"/>
    </g>
</svg>
