<?xml version="1.0" encoding="UTF-8" standalone="no"?>
<!DOCTYPE svg PUBLIC "-//W3C//DTD SVG 1.1//EN" "http://www.w3.org/Graphics/SVG/1.1/DTD/svg11.dtd">
<svg width="100%" height="100%" viewBox="0 0 30 30" version="1.1" xmlns="http://www.w3.org/2000/svg" xmlns:xlink="http://www.w3.org/1999/xlink" xml:space="preserve" xmlns:serif="http://www.serif.com/" style="fill-rule:evenodd;clip-rule:evenodd;stroke-linejoin:round;stroke-miterlimit:2;">
    <g transform="matrix(0.182882,0,0,0.182882,-5.901609,-5.182882)">
        <path d="M69.37,28.34C48.82,28.34 32.27,44.89 32.27,65.45L32.27,154.56C32.27,175.11 48.82,191.67 69.37,191.67L159.21,191.67C179.76,191.67 196.31,175.12 196.31,154.56L196.31,65.45C196.31,44.9 179.76,28.34 159.21,28.34L69.37,28.34ZM168.55,87.9C168.55,87.9 169.66,96.86 169.66,105.82L169.66,114.17C169.66,123.13 168.55,132.09 168.55,132.09C168.55,132.09 167.45,139.7 164.13,143.01C159.96,147.43 155.17,147.55 153.08,147.8C137.49,148.9 114.3,148.9 114.3,148.9C114.3,148.9 85.57,148.66 76.62,147.8C74.17,147.31 68.64,147.43 64.47,143.13C61.15,139.7 60.05,132.09 60.05,132.09C60.05,132.09 58.95,123.13 58.95,114.17L58.95,105.82C58.95,96.86 60.05,87.9 60.05,87.9C60.05,87.9 61.15,80.29 64.47,76.86C68.64,72.44 73.43,72.44 75.52,72.19C91.11,71.09 114.31,71.09 114.31,71.09C114.31,71.09 137.51,71.09 152.97,72.19C155.18,72.44 159.96,72.44 164.14,76.86C167.45,80.29 168.56,87.9 168.56,87.9L168.55,87.9ZM102.88,124.37L102.88,93.31L132.7,108.9L102.88,124.37Z" style="fill:white;"/>
    </g>
</svg>
